<svg width="300" height="300" viewBox="0 0 300 300" fill="none" xmlns="http://www.w3.org/2000/svg">
<path d="M114.875 174.625V84.625L184.813 44.25C223.563 21.875 292.938 77.0625 263.813 127.562" stroke="black" stroke-width="10" stroke-linejoin="round"/>
<path d="M114.875 130.875L192.813 85.875L262.75 126.25C301.5 148.625 288.375 236.312 230.063 236.312" stroke="black" stroke-width="10" stroke-linejoin="round"/>
<path d="M152.75 109L230.688 154V234.812C230.688 279.562 148.187 312.062 119.062 261.562" stroke="black" stroke-width="10" stroke-linejoin="round"/>
<path d="M190.625 132.5V220.875L120.687 261.25C81.9375 283.625 12.5625 228.437 41.6875 177.937" stroke="black" stroke-width="10" stroke-linejoin="round"/>
<path d="M190.625 174.625L112.687 219.625L42.7499 179.25C3.93742 156.813 17.0624 69.1875 75.3749 69.1875" stroke="black" stroke-width="10" stroke-linejoin="round"/>
<path d="M152.75 196.5L74.8125 151.5V70.6875C74.8125 25.9375 157.313 -6.5625 186.438 43.9375" stroke="black" stroke-width="10" stroke-linejoin="round"/>
</svg>
